<?xml version="1.0" standalone="no"?>
<!DOCTYPE svg PUBLIC "-//W3C//DTD SVG 20010904//EN"
 "http://www.w3.org/TR/2001/REC-SVG-20010904/DTD/svg10.dtd">
<svg version="1.0" xmlns="http://www.w3.org/2000/svg"
 width="2000.000000pt" height="2000.000000pt" viewBox="0 0 2000.000000 2000.000000"
 preserveAspectRatio="xMidYMid meet">
<metadata>
Created by potrace 1.16, written by Peter Selinger 2001-2019
</metadata>
<g transform="translate(0.000000,2000.000000) scale(0.100000,-0.100000)"
fill="#000000" stroke="none">
<path d="M7753 16564 c-11 -29 8 -286 38 -514 16 -123 29 -226 29 -227 0 -2
45 -3 100 -3 95 0 100 1 105 23 20 91 55 466 55 591 l0 146 -160 0 c-138 0
-162 -2 -167 -16z"/>
<path d="M7088 16270 c-152 -32 -213 -58 -280 -118 -99 -90 -105 -228 -13
-324 55 -59 72 -62 303 -68 230 -5 232 -6 232 -62 0 -32 -36 -64 -93 -79 -55
-15 -104 -3 -139 32 -16 16 -33 29 -37 29 -11 0 -272 -88 -278 -94 -8 -8 25
-56 61 -89 92 -85 231 -96 454 -36 147 39 262 124 292 215 34 98 3 208 -73
264 -65 48 -101 53 -300 46 -196 -7 -217 -3 -217 43 0 33 21 54 74 71 45 15
102 2 130 -29 17 -19 20 -18 152 26 74 25 134 50 134 56 0 6 -22 32 -48 57
-84 81 -179 97 -354 60z"/>
<path d="M6188 16065 c-61 -23 -111 -62 -149 -119 l-36 -54 -13 55 c-10 49
-14 54 -33 49 -12 -3 -74 -17 -137 -32 -63 -14 -116 -28 -118 -29 -4 -4 237
-1067 243 -1073 2 -2 69 11 149 29 117 26 146 36 146 49 0 9 -17 92 -39 184
-32 139 -35 166 -22 160 111 -45 213 -45 305 0 70 34 139 110 162 179 36 103
17 276 -43 404 -36 75 -116 161 -178 190 -58 27 -175 31 -237 8z m82 -254 c37
-27 68 -87 81 -163 11 -59 10 -73 -5 -113 -20 -52 -55 -75 -111 -75 -55 0 -92
27 -123 90 -22 45 -27 69 -27 132 0 68 3 79 25 103 51 55 107 64 160 26z"/>
<path d="M9690 16004 c-413 -53 -729 -196 -1004 -454 -251 -236 -472 -677
-605 -1205 -127 -506 -194 -1034 -194 -1540 -1 -571 67 -945 231 -1270 47 -94
151 -259 199 -315 85 -101 105 -122 139 -152 22 -18 42 -38 47 -45 10 -16 159
-131 227 -175 322 -209 876 -341 1430 -341 531 0 910 128 1218 409 411 376
693 1095 821 2094 35 271 44 418 44 700 0 579 -69 983 -219 1281 -123 247
-266 429 -454 578 -310 248 -681 380 -1222 436 -179 18 -512 18 -658 -1z
m1632 -2114 l106 0 35 -62 c33 -58 40 -65 102 -92 62 -27 69 -28 122 -17 l55
11 57 -58 c31 -32 71 -74 89 -94 l33 -35 -15 -60 c-15 -58 -15 -62 8 -119 22
-56 40 -75 123 -134 20 -14 20 -21 14 -145 l-6 -130 -62 -35 c-34 -19 -63 -39
-63 -43 0 -5 -12 -33 -26 -62 -25 -51 -26 -57 -15 -112 l12 -58 -92 -87 c-51
-49 -96 -88 -100 -88 -4 0 -33 6 -63 14 -53 14 -58 14 -118 -10 -56 -23 -68
-33 -103 -85 l-40 -60 -74 5 c-41 3 -99 6 -130 6 l-56 0 -34 60 c-30 55 -39
63 -99 90 -61 28 -69 30 -123 20 l-57 -11 -59 62 c-127 134 -119 118 -100 194
12 46 12 54 -12 114 -22 55 -33 69 -83 104 -66 46 -63 38 -51 206 l6 91 59 36
c51 31 62 44 88 100 27 61 28 68 18 120 l-11 55 39 40 c21 23 64 63 95 89 l56
49 57 -15 c54 -14 59 -14 118 8 53 20 67 31 107 86 36 49 50 62 66 58 11 -3
68 -6 127 -6z m-1911 -693 c34 -39 44 -45 106 -56 66 -11 70 -11 138 18 38 16
74 27 80 23 7 -4 59 -38 118 -77 l106 -70 1 -78 c0 -72 3 -81 36 -131 30 -45
45 -58 92 -77 32 -12 59 -24 61 -25 2 -2 16 -65 32 -141 l28 -138 -50 -50
c-32 -33 -49 -59 -49 -75 0 -14 -4 -40 -9 -58 -8 -27 -4 -45 22 -107 l31 -74
-78 -116 -77 -115 -74 0 c-68 0 -79 -3 -133 -37 -53 -33 -62 -44 -78 -91 -10
-29 -23 -57 -29 -62 -5 -4 -70 -20 -144 -35 l-134 -27 -46 46 c-40 39 -55 46
-111 57 -62 11 -68 10 -124 -15 -32 -14 -65 -26 -74 -26 -8 0 -66 34 -129 75
l-113 76 0 77 c0 69 -4 82 -30 121 -17 24 -30 48 -30 52 0 4 -27 18 -60 30
-33 12 -63 26 -67 32 -3 5 -18 69 -33 141 l-28 131 45 46 c37 39 47 58 59 110
13 63 13 65 -18 136 l-31 71 79 119 79 118 85 5 c75 5 90 9 131 37 37 26 51
44 69 92 l22 59 121 25 c167 34 163 34 208 -16z"/>
<path d="M11198 13387 c-65 -19 -141 -80 -175 -141 -24 -44 -28 -62 -28 -131
0 -86 16 -129 70 -193 34 -40 118 -81 182 -89 112 -13 237 61 283 169 19 43
22 65 18 129 -5 83 -30 139 -85 191 -63 60 -180 88 -265 65z"/>
<path d="M9209 13168 l-96 -20 -18 -55 c-17 -49 -25 -58 -87 -99 -64 -41 -73
-44 -138 -44 l-70 0 -65 -98 -66 -98 30 -69 c20 -47 27 -76 21 -89 -4 -12 -10
-43 -14 -71 -6 -40 -16 -59 -51 -95 l-43 -45 22 -114 23 -115 59 -27 c51 -23
65 -35 103 -93 42 -65 43 -70 39 -133 l-4 -65 95 -64 c53 -35 101 -64 107 -64
6 0 36 11 67 25 54 25 56 25 138 11 78 -14 85 -17 120 -57 l37 -42 118 24 118
24 22 55 c19 47 31 61 85 97 60 40 68 43 136 43 l73 0 66 100 67 100 -28 61
c-27 60 -27 64 -15 138 11 69 16 80 56 121 l44 46 -22 109 c-11 61 -25 115
-30 122 -5 7 -31 19 -57 28 -42 13 -53 24 -91 83 -41 64 -43 70 -41 137 l1 70
-101 67 -101 66 -66 -29 -65 -29 -76 15 c-65 14 -82 22 -116 56 -47 45 -50 45
-186 17z m344 -238 c214 -67 367 -281 367 -513 0 -236 -167 -452 -395 -512
-76 -19 -204 -19 -280 1 -165 42 -307 177 -366 345 -33 92 -33 248 -1 340 96
277 394 426 675 339z"/>
<path d="M9261 12894 c-161 -43 -287 -163 -341 -325 -18 -53 -21 -81 -18 -170
3 -101 5 -110 45 -190 85 -171 255 -279 438 -279 117 0 251 55 339 138 161
154 196 403 85 599 -38 66 -143 164 -211 196 -102 48 -231 60 -337 31z"/>
<path d="M3960 15873 c-269 -45 -456 -199 -501 -411 -16 -77 -6 -238 21 -332
87 -305 313 -449 619 -396 256 45 409 153 482 341 20 51 23 77 22 180 -1 316
-149 547 -388 610 -55 14 -194 18 -255 8z m146 -282 c71 -32 120 -116 148
-253 30 -145 17 -219 -48 -284 -24 -25 -58 -46 -81 -53 -196 -54 -330 95 -330
370 0 100 2 108 29 147 57 83 186 116 282 73z"/>
<path d="M5155 15831 c-247 -40 -405 -185 -422 -388 -14 -180 79 -348 235
-421 53 -25 67 -27 187 -27 110 0 140 4 195 23 124 45 205 111 261 215 33 60
34 65 34 177 0 96 -4 124 -23 173 -28 69 -89 148 -141 182 -86 58 -215 83
-326 66z m101 -241 c18 -12 42 -40 54 -65 28 -58 45 -159 36 -209 -14 -75 -99
-130 -173 -111 -73 18 -137 136 -136 250 1 133 112 201 219 135z"/>
<path d="M12380 15833 c-79 -12 -250 -61 -250 -72 1 -27 18 -30 69 -10 86 32
190 51 293 53 86 1 98 3 98 19 0 15 -11 17 -92 16 -51 -1 -104 -3 -118 -6z"/>
<path d="M12738 15793 c-10 -2 -18 -11 -18 -19 0 -25 -47 -64 -77 -64 -41 -1
-68 -42 -68 -107 -1 -39 -6 -58 -23 -75 -12 -13 -20 -32 -17 -43 2 -11 6 -32
9 -46 4 -17 14 -29 29 -33 26 -6 54 -50 49 -77 -5 -30 55 -64 117 -64 42 -1
57 -5 71 -22 14 -18 24 -21 60 -16 35 5 46 12 62 40 12 19 31 36 47 39 51 11
56 14 78 47 18 25 21 41 16 70 -4 30 -1 45 16 67 11 16 21 40 21 54 0 36 -17
76 -33 76 -22 0 -57 44 -57 73 0 41 -55 78 -104 70 -29 -4 -44 -1 -66 16 -28
20 -70 25 -112 14z m148 -191 c74 -59 53 -168 -37 -192 -34 -9 -45 -8 -72 7
-18 10 -40 35 -50 56 -16 31 -17 42 -7 72 6 19 23 44 37 55 32 25 100 26 129
2z"/>
<path d="M7770 15605 l0 -135 155 0 155 0 0 135 0 135 -155 0 -155 0 0 -135z"/>
<path d="M12368 15711 c-87 -28 -183 -87 -259 -158 -38 -36 -69 -70 -69 -75 0
-17 32 -21 42 -5 34 61 180 163 284 197 49 17 64 26 64 41 0 10 -1 19 -2 18
-2 0 -28 -8 -60 -18z"/>
<path d="M4331 14104 c-68 -87 -90 -331 -40 -451 29 -68 23 -81 -29 -62 -95
36 -209 237 -230 404 -5 45 -11 61 -25 63 -14 3 -17 -4 -17 -41 0 -60 44 -207
83 -281 67 -126 176 -211 239 -187 22 8 30 5 54 -21 54 -56 134 -83 173 -59
10 7 19 4 27 -7 11 -14 8 -25 -15 -67 -62 -110 -260 -464 -290 -519 -18 -32
-46 -80 -61 -106 -15 -26 -43 -74 -61 -106 -17 -33 -98 -176 -179 -319 -127
-225 -326 -580 -415 -740 -15 -27 -91 -162 -170 -300 -147 -258 -308 -544
-447 -792 l-79 -142 75 -413 c123 -667 132 -718 139 -724 5 -5 286 41 462 77
292 58 2040 368 2045 362 4 -4 23 -100 43 -213 65 -362 127 -695 131 -706 4
-9 1181 198 1193 210 3 2 -2 42 -11 88 -9 46 -41 220 -72 388 -30 168 -61 339
-69 380 -7 41 -12 77 -10 79 4 3 193 38 548 101 37 7 67 17 67 24 0 6 -29 169
-64 361 -35 193 -79 429 -96 525 -18 96 -34 177 -36 179 -1 2 -141 -22 -310
-53 -169 -31 -308 -55 -309 -54 -2 2 -6 17 -9 33 l-6 30 103 0 c95 0 108 2
163 30 47 24 63 39 81 75 13 24 31 48 40 53 35 19 73 61 84 94 6 19 22 39 37
47 54 28 172 157 172 188 0 33 -26 18 -79 -46 -50 -60 -101 -106 -118 -106 -4
0 -17 13 -28 30 -44 65 -214 137 -263 111 -34 -18 -26 -47 24 -101 52 -56 132
-100 181 -100 41 0 43 -17 6 -52 -41 -37 -61 -41 -94 -17 -43 30 -189 97 -236
107 -50 11 -78 -2 -67 -32 9 -24 145 -112 192 -126 21 -6 56 -13 79 -17 37 -5
41 -8 33 -23 -26 -49 -150 -87 -241 -76 -30 4 -60 10 -67 15 -8 5 -38 146 -77
357 -35 192 -111 608 -169 924 -58 316 -151 823 -206 1125 -56 303 -104 553
-108 556 -4 3 -272 -43 -597 -102 -324 -60 -592 -109 -595 -109 -3 0 -50 -82
-105 -180 -92 -166 -126 -214 -111 -157 3 12 19 74 36 137 31 117 50 290 36
344 -9 37 -40 34 -64 -6 -29 -48 -69 -173 -83 -256 -9 -55 -9 -88 0 -143 6
-38 9 -74 6 -80 -16 -25 -82 0 -127 48 l-27 28 19 57 c41 119 52 385 19 453
-19 40 -51 44 -78 9z m53 -55 c16 -84 -5 -347 -33 -396 -14 -26 -43 65 -48
152 -5 81 8 158 42 239 19 44 31 46 39 5z m733 -1881 c17 -95 82 -449 144
-786 61 -337 110 -615 107 -617 -3 -3 -290 -57 -639 -121 -349 -63 -644 -117
-656 -121 -30 -7 -29 7 5 64 16 27 71 122 122 213 51 91 126 222 167 293 41
70 71 133 67 139 -4 6 -3 9 2 5 8 -4 289 478 489 838 93 167 150 265 155 265
3 0 20 -78 37 -172z"/>
<path d="M15567 14051 c-19 -21 -39 -40 -45 -42 -9 -4 -98 -86 -326 -299 -38
-36 -77 -72 -86 -80 -151 -137 -614 -562 -691 -634 -41 -39 -106 -100 -145
-135 -38 -35 -96 -89 -130 -120 -79 -74 -159 -146 -280 -256 -54 -49 -126
-115 -159 -146 -81 -75 -392 -363 -470 -434 -16 -15 -79 -73 -140 -129 -60
-57 -171 -158 -245 -226 -74 -67 -134 -128 -134 -135 1 -8 -4 -11 -11 -9 -24
9 -33 -24 -54 -186 -12 -91 -28 -212 -36 -270 -48 -351 -95 -713 -93 -715 2
-1 59 -10 128 -19 271 -36 958 -129 1200 -161 140 -20 341 -46 445 -60 472
-63 745 -101 749 -106 3 -3 -21 -207 -54 -453 -33 -247 -60 -458 -60 -471 0
-19 6 -23 53 -28 28 -3 210 -27 402 -52 271 -37 353 -51 363 -63 10 -13 16
-14 31 -5 14 9 56 6 182 -11 90 -12 166 -21 168 -20 1 1 31 212 65 468 34 256
64 468 67 470 2 3 142 -14 311 -37 169 -22 309 -39 311 -36 3 2 28 180 56 394
28 215 61 455 71 534 15 104 17 147 9 152 -6 3 -39 10 -73 13 -33 4 -169 22
-301 40 l-240 32 3 29 c5 42 99 752 273 2055 38 289 74 557 79 595 5 39 18
140 30 225 11 85 22 167 24 181 5 25 2 27 -42 34 -25 4 -51 14 -58 23 -10 13
-15 14 -27 4 -12 -10 -44 -9 -163 7 -82 11 -318 43 -524 71 -206 27 -380 50
-386 50 -6 0 -27 -17 -47 -39z m-160 -1503 c-3 -13 -52 -369 -108 -793 -56
-423 -103 -772 -105 -774 -1 -1 -33 2 -71 8 -37 6 -169 24 -293 41 -702 94
-963 130 -969 135 -3 3 -1 9 5 13 6 4 53 45 105 92 51 47 149 136 218 199 69
63 160 146 201 185 42 39 96 89 120 110 25 22 90 80 144 130 55 50 111 102
125 114 14 13 62 56 106 95 44 40 103 93 130 119 28 26 106 98 175 160 69 62
143 130 165 150 46 43 59 47 52 16z"/>
<path d="M10115 10130 c-182 -14 -328 -51 -469 -121 -109 -54 -188 -113 -276
-205 -265 -278 -400 -704 -442 -1401 l-12 -203 -180 0 c-152 0 -182 2 -198 16
-15 14 -20 15 -34 4 -13 -11 -122 -11 -640 -1 -344 7 -626 12 -628 10 -1 -2 6
-206 17 -452 10 -247 18 -450 16 -452 -3 -2 -63 -13 -134 -24 -467 -75 -835
-191 -1051 -332 -88 -57 -103 -103 -63 -196 134 -311 226 -766 254 -1245 l6
-108 -33 0 c-99 0 -263 -76 -346 -160 -65 -64 -62 -61 -126 -158 -133 -205
-151 -319 -60 -381 36 -25 94 -32 147 -18 26 7 24 2 -39 -85 -207 -285 -402
-489 -546 -572 l-47 -27 -71 223 c-38 123 -76 233 -83 246 -6 12 -99 76 -204
142 l-193 119 -52 -55 c-29 -31 -57 -62 -61 -70 -5 -8 5 -77 23 -161 58 -274
171 -828 177 -863 3 -19 10 -43 15 -53 8 -15 227 -127 250 -127 5 0 81 42 168
93 117 67 159 96 156 108 -2 12 14 25 57 45 131 62 235 143 394 306 152 155
260 291 443 553 46 66 85 122 86 124 2 2 54 -37 116 -86 228 -182 539 -399
816 -571 73 -45 137 -82 142 -82 6 0 10 -30 10 -67 0 -38 3 -77 6 -88 5 -20 0
-20 -418 -20 -411 0 -518 -6 -658 -36 -26 -6 -56 -16 -66 -23 -17 -13 -17 -14
3 -24 11 -6 80 -16 154 -22 74 -6 138 -15 142 -20 5 -4 -24 -13 -65 -20 -244
-39 -487 -102 -496 -128 -6 -19 41 -31 177 -47 238 -27 557 -38 1106 -38 969
0 1495 48 1495 138 0 33 -76 49 -331 70 -231 19 -296 31 -276 52 11 11 681
-15 685 -27 5 -13 39 -13 44 0 3 10 175 6 703 -13 l80 -3 3 -70 c9 -242 23
-518 26 -522 3 -2 166 -15 363 -27 l358 -24 88 87 c71 71 87 92 87 117 0 68 4
70 103 84 240 34 569 141 810 263 l59 29 272 -9 c261 -9 277 -9 426 14 85 13
218 33 295 45 77 11 291 44 475 72 l335 52 46 495 c26 272 48 497 48 500 1 3
18 -24 39 -60 200 -342 519 -701 939 -1058 103 -87 160 -122 202 -122 57 0
105 39 115 96 11 56 -10 88 -117 175 -442 361 -813 789 -986 1135 -54 110 -61
139 -101 450 l-20 162 30 313 c16 173 50 532 75 799 25 267 61 652 80 855 19
204 38 400 41 436 7 77 16 71 -116 89 -118 16 -115 14 -89 52 12 18 31 43 41
54 l19 22 25 -24 c58 -59 239 -98 355 -76 72 13 89 25 89 62 0 36 -54 74 -161
112 -92 32 -187 37 -246 13 -46 -19 -43 -20 -43 18 0 41 37 114 71 139 23 18
29 18 89 4 141 -33 373 -44 433 -21 9 4 17 17 17 30 0 17 -10 27 -41 39 -129
52 -309 70 -405 41 -65 -20 -73 -19 -79 8 -8 31 10 76 46 113 29 30 32 31 67
19 97 -34 384 -25 462 13 77 37 38 87 -92 117 -128 29 -255 15 -359 -39 -52
-27 -59 -25 -59 14 0 90 197 235 378 277 45 11 72 22 72 30 0 24 -27 25 -106
3 -240 -66 -433 -250 -374 -359 7 -14 3 -24 -16 -42 -33 -30 -64 -91 -64 -123
0 -14 5 -37 12 -51 11 -24 9 -29 -21 -57 -46 -43 -71 -102 -71 -169 0 -46 -4
-59 -25 -79 -14 -13 -37 -43 -51 -67 -15 -26 -32 -43 -44 -43 -10 0 -159 23
-332 51 -342 55 -255 49 -1103 75 l-190 6 4 226 c4 271 -14 449 -63 646 -146
578 -504 936 -1071 1071 -195 47 -449 68 -640 55z m-217 -819 c173 -16 315
-31 317 -33 2 -2 -4 -34 -12 -73 -38 -179 19 -370 127 -425 72 -37 132 -20
198 55 67 76 85 138 86 282 l1 123 52 0 c69 0 80 -13 88 -105 8 -87 -11 -218
-45 -308 -51 -135 -177 -280 -304 -351 -316 -177 -704 -92 -911 199 -129 181
-163 395 -98 615 l18 63 85 -7 c47 -3 226 -19 398 -35z m4370 -655 c28 -9 52
-21 52 -25 0 -5 -24 -15 -52 -22 -62 -16 -330 -17 -368 -2 l-25 10 35 18 c65
34 122 45 215 41 50 -2 114 -12 143 -20z m-371 -507 c54 -11 175 -70 181 -87
2 -6 -16 -16 -40 -23 -82 -22 -266 8 -322 52 -34 27 -33 37 7 54 39 17 109 19
174 4z m-6613 -1121 c3 -29 26 -548 51 -1153 25 -605 50 -1185 55 -1290 5
-104 7 -191 5 -194 -13 -13 -657 446 -793 566 l-44 38 28 49 c48 86 34 222
-30 294 l-33 37 -11 205 c-22 397 -84 742 -189 1060 -24 74 -47 141 -50 148
-6 16 144 87 277 131 184 62 459 122 722 160 4 1 9 -23 12 -51z m1469 -108 c5
-4 6 -38 2 -75 l-7 -67 -169 8 -169 7 0 -52 0 -51 63 0 c35 0 105 -3 155 -6
l92 -7 0 -68 0 -68 -160 6 -160 6 0 -60 0 -60 61 -7 c34 -3 113 -6 176 -6
l114 0 -3 -77 -3 -78 -125 3 c-69 1 -194 5 -279 8 l-154 6 7 267 c4 146 9 295
13 329 l6 64 266 -7 c146 -4 270 -11 274 -15z m433 -9 c105 -6 151 -13 185
-28 134 -59 127 -268 -10 -329 l-39 -17 36 -31 c23 -20 54 -69 89 -141 29 -60
53 -114 53 -118 0 -4 -51 -6 -112 -5 l-113 3 -61 119 c-61 119 -90 156 -124
156 -15 0 -18 -15 -22 -131 -3 -71 -8 -132 -11 -135 -2 -3 -51 -2 -107 2
l-102 7 6 41 c3 23 8 170 12 329 l7 287 86 -1 c47 0 149 -4 227 -8z m660 -20
c156 -7 200 -13 236 -29 63 -27 91 -71 96 -147 6 -96 -36 -163 -123 -192 -28
-10 -29 -11 -9 -19 36 -15 71 -67 123 -178 l50 -106 -117 0 -117 0 -63 130
c-55 111 -68 130 -94 139 -17 6 -34 8 -37 5 -3 -3 -8 -64 -10 -135 l-3 -129
-82 0 c-44 0 -92 3 -105 7 l-23 6 6 196 c3 108 9 256 12 329 l6 132 32 0 c17
-1 117 -5 222 -9z m836 -22 c189 -40 285 -196 249 -404 -22 -123 -80 -203
-180 -249 -66 -30 -232 -28 -313 3 -65 25 -128 88 -161 159 -29 63 -31 222 -4
298 20 58 71 123 120 153 73 45 189 61 289 40z m840 -46 c63 -18 103 -56 118
-113 25 -93 -11 -176 -95 -222 -28 -15 -44 -28 -37 -28 25 0 66 -56 118 -165
30 -60 54 -113 54 -117 0 -10 -155 -11 -199 -2 -29 6 -38 17 -91 125 -57 113
-86 149 -121 149 -14 0 -17 -18 -21 -130 -3 -72 -7 -132 -9 -135 -3 -2 -51 -2
-108 2 l-103 6 6 31 c2 17 8 166 12 330 l7 299 209 -7 c138 -5 227 -13 260
-23z m-2848 -1135 c18 -18 99 -106 180 -195 81 -90 150 -163 153 -163 4 0 36
28 72 63 137 129 275 253 302 270 35 23 47 17 119 -60 99 -105 240 -261 261
-287 11 -14 23 -26 27 -26 9 0 32 21 222 196 150 137 178 158 203 149 6 -3 90
-91 186 -195 96 -105 178 -189 182 -188 7 3 71 60 273 245 126 115 136 117
209 36 29 -31 118 -129 199 -217 126 -137 148 -166 148 -193 0 -33 -21 -53
-54 -53 -19 0 -33 13 -214 212 -84 92 -156 169 -160 172 -4 2 -61 -46 -127
-106 -162 -149 -244 -221 -261 -231 -8 -5 -23 -6 -33 -2 -16 5 -192 190 -338
354 l-30 34 -129 -118 c-71 -65 -155 -142 -186 -171 -69 -64 -92 -73 -124 -48
-13 11 -96 99 -185 197 l-161 178 -28 -23 c-16 -13 -100 -89 -187 -169 -87
-80 -169 -150 -182 -154 -26 -8 -64 28 -270 255 -63 69 -117 125 -122 125 -4
0 -24 -16 -46 -35 -21 -20 -101 -93 -178 -164 -77 -70 -150 -133 -162 -139
-17 -7 -28 -6 -48 7 -55 36 -39 57 225 297 178 162 199 179 215 179 8 0 30
-15 49 -32z"/>
<path d="M9080 6715 l0 -65 70 0 c57 0 74 4 90 20 57 57 -4 107 -132 109 -28
1 -28 0 -28 -64z"/>
<path d="M9790 6691 c0 -58 1 -60 30 -66 39 -9 118 4 135 22 8 8 15 27 15 43
0 43 -32 60 -112 60 l-68 0 0 -59z"/>
<path d="M10545 6711 c-31 -14 -65 -54 -75 -92 -15 -50 -12 -155 4 -194 29
-69 133 -99 190 -54 39 31 57 72 63 148 7 81 -6 127 -46 165 -32 30 -99 43
-136 27z"/>
<path d="M11260 6646 l0 -66 70 0 c75 0 110 19 110 59 0 42 -31 61 -107 68
l-73 6 0 -67z"/>
<path d="M15300 3805 c-79 -18 -128 -37 -181 -71 -39 -24 -42 -25 -74 -10 -87
42 -175 -12 -175 -106 0 -39 31 -94 58 -102 13 -5 22 -19 26 -45 12 -76 148
-165 363 -237 164 -55 316 -58 376 -6 27 24 21 57 -15 87 l-33 27 35 -6 c87
-14 370 -19 432 -6 176 34 240 141 139 231 -75 67 -325 175 -521 226 -122 31
-332 40 -430 18z"/>
<path d="M3699 3758 c-7 -13 -15 -57 -17 -99 -4 -67 -1 -82 19 -118 12 -23 26
-41 31 -41 4 0 8 -4 8 -10 0 -14 -78 -32 -110 -25 -24 5 -29 12 -35 48 -9 61
-43 166 -68 210 -17 30 -26 37 -47 35 -24 -3 -25 -5 -24 -83 0 -85 24 -157 66
-202 25 -27 18 -39 -27 -47 -55 -11 -72 -1 -78 44 -7 55 -62 168 -100 208 -59
61 -105 32 -93 -61 13 -91 39 -136 108 -187 l38 -28 -30 -12 c-59 -25 -193 25
-265 99 -22 22 -45 40 -52 41 -23 0 -22 -17 2 -50 81 -109 299 -176 364 -111
12 12 33 17 77 16 43 0 68 5 89 20 22 14 48 20 95 20 42 1 77 7 99 19 26 14
62 19 145 21 126 4 209 23 214 48 4 21 -12 21 -103 2 -39 -8 -93 -15 -120 -15
l-51 0 4 71 c5 75 -12 136 -49 183 -27 34 -73 35 -90 4z"/>
<path d="M16697 3673 c-63 -99 -62 -96 -20 -173 l38 -70 117 0 116 0 36 64
c20 35 36 69 36 76 0 6 -17 40 -37 75 l-37 65 -113 0 -113 0 -23 -37z"/>
<path d="M13590 3511 c-65 -8 -87 -19 -128 -65 -62 -71 -67 -157 -13 -233 17
-24 31 -47 31 -52 0 -24 132 -21 179 3 16 9 42 29 57 46 28 29 32 30 112 30
114 0 151 22 151 90 0 68 -43 92 -157 89 -64 -2 -76 1 -85 17 -24 42 -64 84
-79 83 -7 -1 -38 -5 -68 -8z"/>
<path d="M8954 3413 l-112 -4 -52 -89 -51 -90 53 -95 53 -95 156 0 155 0 50
87 c27 48 51 91 52 95 2 5 -20 51 -50 103 l-53 95 -45 -2 c-25 -1 -95 -4 -156
-5z"/>
</g>
</svg>
