<svg width="18" height="18" viewBox="0 0 18 18" fill="none" xmlns="http://www.w3.org/2000/svg">
<path d="M12.5 11.5H11.71L11.43 11.23C12.63 9.83 13.25 7.92 12.91 5.89C12.44 3.11 10.12 0.89 7.32001 0.55C3.09001 0.03 -0.469985 3.59 0.0500152 7.82C0.390015 10.62 2.61002 12.94 5.39002 13.41C7.42002 13.75 9.33002 13.13 10.73 11.93L11 12.21V13L15.25 17.25C15.66 17.66 16.33 17.66 16.74 17.25C17.15 16.84 17.15 16.17 16.74 15.76L12.5 11.5ZM6.50002 11.5C4.01002 11.5 2.00002 9.49 2.00002 7C2.00002 4.51 4.01002 2.5 6.50002 2.5C8.99002 2.5 11 4.51 11 7C11 9.49 8.99002 11.5 6.50002 11.5Z" fill="#A2A2A2"/>
</svg>
